<mxfile host="app.diagrams.net" agent="Mozilla/5.0 (Windows NT 10.0; Win64; x64) AppleWebKit/537.36 (KHTML, like Gecko) Chrome/137.0.0.0 Safari/537.36" version="27.2.0">
  <diagram name="Seite-1" id="yxIFf8-CU0IBGaThgh3M">
    <mxGraphModel dx="1665" dy="743" grid="1" gridSize="10" guides="1" tooltips="1" connect="1" arrows="0" fold="1" page="1" pageScale="1" pageWidth="827" pageHeight="1169" math="0" shadow="0">
      <root>
        <mxCell id="0" />
        <mxCell id="1" parent="0" />
        <mxCell id="y6IBWSBjQ_AWn3JvZ0fy-11" style="edgeStyle=orthogonalEdgeStyle;rounded=0;orthogonalLoop=1;jettySize=auto;html=1;" edge="1" parent="1" source="y6IBWSBjQ_AWn3JvZ0fy-1" target="y6IBWSBjQ_AWn3JvZ0fy-4">
          <mxGeometry relative="1" as="geometry">
            <Array as="points">
              <mxPoint x="414" y="190" />
              <mxPoint x="414" y="190" />
            </Array>
          </mxGeometry>
        </mxCell>
        <mxCell id="y6IBWSBjQ_AWn3JvZ0fy-1" value="Admin&lt;div&gt;&lt;br&gt;&lt;/div&gt;" style="shape=umlActor;verticalLabelPosition=bottom;verticalAlign=top;html=1;outlineConnect=0;" vertex="1" parent="1">
          <mxGeometry x="399" y="40" width="30" height="60" as="geometry" />
        </mxCell>
        <mxCell id="y6IBWSBjQ_AWn3JvZ0fy-7" style="edgeStyle=orthogonalEdgeStyle;rounded=0;orthogonalLoop=1;jettySize=auto;html=1;" edge="1" parent="1" source="y6IBWSBjQ_AWn3JvZ0fy-2" target="y6IBWSBjQ_AWn3JvZ0fy-6">
          <mxGeometry relative="1" as="geometry" />
        </mxCell>
        <mxCell id="y6IBWSBjQ_AWn3JvZ0fy-8" value="can view all public" style="edgeLabel;html=1;align=center;verticalAlign=middle;resizable=0;points=[];" vertex="1" connectable="0" parent="y6IBWSBjQ_AWn3JvZ0fy-7">
          <mxGeometry x="-0.4052" y="3" relative="1" as="geometry">
            <mxPoint as="offset" />
          </mxGeometry>
        </mxCell>
        <mxCell id="y6IBWSBjQ_AWn3JvZ0fy-2" value="User&lt;div&gt;&lt;br&gt;&lt;/div&gt;" style="shape=umlActor;verticalLabelPosition=bottom;verticalAlign=top;html=1;outlineConnect=0;" vertex="1" parent="1">
          <mxGeometry x="399" y="670" width="30" height="60" as="geometry" />
        </mxCell>
        <mxCell id="y6IBWSBjQ_AWn3JvZ0fy-12" style="edgeStyle=orthogonalEdgeStyle;rounded=0;orthogonalLoop=1;jettySize=auto;html=1;entryX=0.5;entryY=0;entryDx=0;entryDy=0;" edge="1" parent="1" source="y6IBWSBjQ_AWn3JvZ0fy-4" target="y6IBWSBjQ_AWn3JvZ0fy-5">
          <mxGeometry relative="1" as="geometry" />
        </mxCell>
        <mxCell id="y6IBWSBjQ_AWn3JvZ0fy-14" value="can update, accept and decline request" style="edgeLabel;html=1;align=center;verticalAlign=middle;resizable=0;points=[];" vertex="1" connectable="0" parent="y6IBWSBjQ_AWn3JvZ0fy-12">
          <mxGeometry x="-0.4914" y="2" relative="1" as="geometry">
            <mxPoint x="-21" y="-2" as="offset" />
          </mxGeometry>
        </mxCell>
        <mxCell id="y6IBWSBjQ_AWn3JvZ0fy-13" style="edgeStyle=orthogonalEdgeStyle;rounded=0;orthogonalLoop=1;jettySize=auto;html=1;entryX=0.5;entryY=0;entryDx=0;entryDy=0;" edge="1" parent="1" source="y6IBWSBjQ_AWn3JvZ0fy-4" target="y6IBWSBjQ_AWn3JvZ0fy-6">
          <mxGeometry relative="1" as="geometry" />
        </mxCell>
        <mxCell id="y6IBWSBjQ_AWn3JvZ0fy-15" value="can create, update and archive content" style="edgeLabel;html=1;align=center;verticalAlign=middle;resizable=0;points=[];" vertex="1" connectable="0" parent="y6IBWSBjQ_AWn3JvZ0fy-13">
          <mxGeometry x="-0.3943" y="4" relative="1" as="geometry">
            <mxPoint as="offset" />
          </mxGeometry>
        </mxCell>
        <mxCell id="y6IBWSBjQ_AWn3JvZ0fy-4" value="Adminservice" style="rounded=0;whiteSpace=wrap;html=1;" vertex="1" parent="1">
          <mxGeometry x="350" y="220" width="120" height="60" as="geometry" />
        </mxCell>
        <mxCell id="y6IBWSBjQ_AWn3JvZ0fy-5" value="Requestservice" style="rounded=0;whiteSpace=wrap;html=1;" vertex="1" parent="1">
          <mxGeometry x="80" y="390" width="120" height="60" as="geometry" />
        </mxCell>
        <mxCell id="y6IBWSBjQ_AWn3JvZ0fy-6" value="Contentservice" style="rounded=0;whiteSpace=wrap;html=1;" vertex="1" parent="1">
          <mxGeometry x="620" y="390" width="120" height="60" as="geometry" />
        </mxCell>
        <mxCell id="y6IBWSBjQ_AWn3JvZ0fy-17" value="" style="endArrow=classic;startArrow=classic;html=1;rounded=0;entryX=0.5;entryY=1;entryDx=0;entryDy=0;" edge="1" parent="1" source="y6IBWSBjQ_AWn3JvZ0fy-2" target="y6IBWSBjQ_AWn3JvZ0fy-5">
          <mxGeometry width="50" height="50" relative="1" as="geometry">
            <mxPoint x="10" y="630" as="sourcePoint" />
            <mxPoint x="100" y="490" as="targetPoint" />
            <Array as="points">
              <mxPoint x="140" y="700" />
            </Array>
          </mxGeometry>
        </mxCell>
        <mxCell id="y6IBWSBjQ_AWn3JvZ0fy-18" value="can create, update and view its own" style="edgeLabel;html=1;align=center;verticalAlign=middle;resizable=0;points=[];" vertex="1" connectable="0" parent="y6IBWSBjQ_AWn3JvZ0fy-17">
          <mxGeometry x="-0.6306" y="-1" relative="1" as="geometry">
            <mxPoint x="-35" y="1" as="offset" />
          </mxGeometry>
        </mxCell>
      </root>
    </mxGraphModel>
  </diagram>
</mxfile>
